{
	"asset":{
		"version":"2.0",
		"generator":"Maxon Cinema 4D 2024.0.0 (#200000219)"
	},
	"scenes":[{
		"nodes":[0,
		1,
		2,
		3,
		4,
		5,
		6]
	}],
	"nodes":[{
		"name":"Camera",
		"camera":0,
		"rotation":[0.04036726430058479,
		-0.007856008596718312,
		-0.00031739409314468503,
		-0.9991539716720581],
		"translation":[0.192280113697052,
		1.088650107383728,
		4.2957024574279789],
		"scale":[1.0,
		1.0,
		1.0]
	},
	{
		"name":"Display",
		"mesh":0,
		"rotation":[0.0,
		0.0,
		0.0,
		-1.0],
		"translation":[0.009786125272512436,
		1.1734758615493775,
		-2.835845708847046],
		"scale":[1.0,
		1.0,
		1.0]
	},
	{
		"name":"Columns",
		"rotation":[0.0,
		0.0,
		0.0,
		-1.0],
		"translation":[0.0,
		0.0,
		0.12116294354200363],
		"scale":[1.0,
		1.0,
		1.0],
		"children":[7,
		8]
	},
	{
		"name":"Back wall",
		"mesh":1,
		"rotation":[0.0,
		0.0,
		0.0,
		-1.0],
		"translation":[0.0,
		1.2899857759475709,
		-2.9576303958892824],
		"scale":[1.0,
		1.0,
		1.0]
	},
	{
		"name":"Floor storage",
		"mesh":2,
		"rotation":[0.0,
		0.0,
		0.0,
		-1.0],
		"translation":[0.009834155440330506,
		0.21202100813388825,
		-2.472177505493164],
		"scale":[1.0,
		1.0,
		1.0]
	},
	{
		"name":"Carpet",
		"mesh":3,
		"rotation":[0.0,
		0.0,
		0.0,
		-1.0],
		"translation":[0.027452558279037477,
		-0.022545816376805307,
		0.8221916556358337],
		"scale":[1.0,
		1.0,
		1.0]
	},
	{
		"name":"Table-top",
		"mesh":4,
		"rotation":[0.0,
		0.0,
		0.0,
		-1.0],
		"translation":[0.0,
		0.19471798837184907,
		1.0522067546844483],
		"scale":[1.0,
		1.0,
		1.0]
	},
	{
		"name":"Cube.1 1",
		"mesh":5,
		"rotation":[0.0,
		0.0,
		0.0,
		-1.0],
		"translation":[2.4953949451446535,
		1.3267364501953126,
		-2.5937511920928957],
		"scale":[1.0,
		1.0,
		1.0]
	},
	{
		"name":"Cube.1",
		"mesh":6,
		"rotation":[0.0,
		0.0,
		0.0,
		-1.0],
		"translation":[-2.4953949451446535,
		1.3267364501953126,
		-2.5937511920928957],
		"scale":[1.0,
		1.0,
		1.0]
	}],
	"meshes":[{
		"name":"Display",
		"primitives":[{
			"attributes":{
				"POSITION":1,
				"NORMAL":2,
				"TEXCOORD_0":3
			},
			"indices":0
		}]
	},
	{
		"name":"Back wall",
		"primitives":[{
			"attributes":{
				"POSITION":5,
				"NORMAL":6,
				"TEXCOORD_0":7
			},
			"indices":4
		}]
	},
	{
		"name":"Floor storage",
		"primitives":[{
			"attributes":{
				"POSITION":9,
				"NORMAL":10,
				"TEXCOORD_0":11
			},
			"indices":8
		}]
	},
	{
		"name":"Carpet",
		"primitives":[{
			"attributes":{
				"POSITION":13,
				"NORMAL":14,
				"TEXCOORD_0":15
			},
			"indices":12
		}]
	},
	{
		"name":"Table-top",
		"primitives":[{
			"attributes":{
				"POSITION":17,
				"NORMAL":18,
				"TEXCOORD_0":19
			},
			"indices":16
		}]
	},
	{
		"name":"Cube.1 1",
		"primitives":[{
			"attributes":{
				"POSITION":21,
				"NORMAL":22,
				"TEXCOORD_0":23
			},
			"indices":20
		}]
	},
	{
		"name":"Cube.1",
		"primitives":[{
			"attributes":{
				"POSITION":25,
				"NORMAL":26,
				"TEXCOORD_0":27
			},
			"indices":24
		}]
	}],
	"cameras":[{
		"type":"perspective",
		"perspective":{
			"znear":0.009999999776482582,
			"zfar":10000000000.0,
			"aspectRatio":1.7777777910232545,
			"yfov":0.6509917378425598
		}
	}],
	"accessors":[{
		"bufferView":0,
		"type":"SCALAR",
		"componentType":5123,
		"count":36,
		"byteOffset":0,
		"min":[0],
		"max":[35]
	},
	{
		"bufferView":1,
		"type":"VEC3",
		"componentType":5126,
		"count":36,
		"byteOffset":0,
		"min":[-1.9978046417236329,
		-1.1051288843154908,
		-0.0468582957983017],
		"max":[1.9978046417236329,
		1.1051288843154908,
		0.0468582957983017]
	},
	{
		"bufferView":1,
		"type":"VEC3",
		"componentType":5126,
		"count":36,
		"byteOffset":12,
		"min":[-1.0,
		-1.0,
		-1.0],
		"max":[1.0,
		1.0,
		1.0]
	},
	{
		"bufferView":1,
		"type":"VEC2",
		"componentType":5126,
		"count":36,
		"byteOffset":24,
		"min":[0.0,
		0.0],
		"max":[1.0,
		1.0]
	},
	{
		"bufferView":2,
		"type":"SCALAR",
		"componentType":5123,
		"count":30,
		"byteOffset":0,
		"min":[0],
		"max":[29]
	},
	{
		"bufferView":3,
		"type":"VEC3",
		"componentType":5126,
		"count":30,
		"byteOffset":0,
		"min":[-2.181551694869995,
		-1.3799999952316285,
		-0.19633972644805909],
		"max":[2.1946797370910646,
		1.3799999952316285,
		0.19633972644805909]
	},
	{
		"bufferView":3,
		"type":"VEC3",
		"componentType":5126,
		"count":30,
		"byteOffset":12,
		"min":[-1.0,
		-1.0,
		-1.0],
		"max":[1.0,
		1.0,
		0.0]
	},
	{
		"bufferView":3,
		"type":"VEC2",
		"componentType":5126,
		"count":30,
		"byteOffset":24,
		"min":[0.0,
		0.0],
		"max":[1.0,
		1.0]
	},
	{
		"bufferView":4,
		"type":"SCALAR",
		"componentType":5123,
		"count":36,
		"byteOffset":0,
		"min":[0],
		"max":[35]
	},
	{
		"bufferView":5,
		"type":"VEC3",
		"componentType":5126,
		"count":36,
		"byteOffset":0,
		"min":[-1.7302377223968506,
		-0.21685801446437837,
		-0.2993183732032776],
		"max":[1.7302377223968506,
		0.21685801446437837,
		0.2993183732032776]
	},
	{
		"bufferView":5,
		"type":"VEC3",
		"componentType":5126,
		"count":36,
		"byteOffset":12,
		"min":[-1.0,
		-1.0,
		-1.0],
		"max":[1.0,
		1.0,
		1.0]
	},
	{
		"bufferView":5,
		"type":"VEC2",
		"componentType":5126,
		"count":36,
		"byteOffset":24,
		"min":[0.0,
		0.0],
		"max":[1.0,
		1.0]
	},
	{
		"bufferView":6,
		"type":"SCALAR",
		"componentType":5123,
		"count":36,
		"byteOffset":0,
		"min":[0],
		"max":[35]
	},
	{
		"bufferView":7,
		"type":"VEC3",
		"componentType":5126,
		"count":36,
		"byteOffset":0,
		"min":[-1.24601149559021,
		-0.005179944913834333,
		-1.5054864883422852],
		"max":[1.24601149559021,
		0.005179944913834333,
		1.5054864883422852]
	},
	{
		"bufferView":7,
		"type":"VEC3",
		"componentType":5126,
		"count":36,
		"byteOffset":12,
		"min":[-1.0,
		-1.0,
		-1.0],
		"max":[1.0,
		1.0,
		1.0]
	},
	{
		"bufferView":7,
		"type":"VEC2",
		"componentType":5126,
		"count":36,
		"byteOffset":24,
		"min":[0.0,
		0.0],
		"max":[1.0,
		1.0]
	},
	{
		"bufferView":8,
		"type":"SCALAR",
		"componentType":5123,
		"count":36,
		"byteOffset":0,
		"min":[0],
		"max":[35]
	},
	{
		"bufferView":9,
		"type":"VEC3",
		"componentType":5126,
		"count":36,
		"byteOffset":0,
		"min":[-0.8365278840065002,
		-0.12486349791288376,
		-0.6889093518257141],
		"max":[0.8365278840065002,
		0.12486349791288376,
		0.6889093518257141]
	},
	{
		"bufferView":9,
		"type":"VEC3",
		"componentType":5126,
		"count":36,
		"byteOffset":12,
		"min":[-1.0,
		-1.0,
		-1.0],
		"max":[1.0,
		1.0,
		1.0]
	},
	{
		"bufferView":9,
		"type":"VEC2",
		"componentType":5126,
		"count":36,
		"byteOffset":24,
		"min":[0.0,
		0.0],
		"max":[1.0,
		1.0]
	},
	{
		"bufferView":10,
		"type":"SCALAR",
		"componentType":5123,
		"count":36,
		"byteOffset":0,
		"min":[0],
		"max":[35]
	},
	{
		"bufferView":11,
		"type":"VEC3",
		"componentType":5126,
		"count":36,
		"byteOffset":0,
		"min":[-0.30320608615875246,
		-1.3799999952316285,
		-0.2783236801624298],
		"max":[0.30320608615875246,
		1.3799999952316285,
		0.2783236801624298]
	},
	{
		"bufferView":11,
		"type":"VEC3",
		"componentType":5126,
		"count":36,
		"byteOffset":12,
		"min":[-1.0,
		-1.0,
		-1.0],
		"max":[1.0,
		1.0,
		1.0]
	},
	{
		"bufferView":11,
		"type":"VEC2",
		"componentType":5126,
		"count":36,
		"byteOffset":24,
		"min":[0.0,
		0.0],
		"max":[1.0,
		1.0]
	},
	{
		"bufferView":12,
		"type":"SCALAR",
		"componentType":5123,
		"count":36,
		"byteOffset":0,
		"min":[0],
		"max":[35]
	},
	{
		"bufferView":13,
		"type":"VEC3",
		"componentType":5126,
		"count":36,
		"byteOffset":0,
		"min":[-0.30320608615875246,
		-1.3799999952316285,
		-0.2783236801624298],
		"max":[0.30320608615875246,
		1.3799999952316285,
		0.2783236801624298]
	},
	{
		"bufferView":13,
		"type":"VEC3",
		"componentType":5126,
		"count":36,
		"byteOffset":12,
		"min":[-1.0,
		-1.0,
		-1.0],
		"max":[1.0,
		1.0,
		1.0]
	},
	{
		"bufferView":13,
		"type":"VEC2",
		"componentType":5126,
		"count":36,
		"byteOffset":24,
		"min":[0.0,
		0.0],
		"max":[1.0,
		1.0]
	}],
	"bufferViews":[{
		"buffer":0,
		"byteOffset":0,
		"byteLength":72,
		"target":34963
	},
	{
		"buffer":0,
		"byteOffset":72,
		"byteLength":1152,
		"target":34962,
		"byteStride":32
	},
	{
		"buffer":1,
		"byteOffset":0,
		"byteLength":60,
		"target":34963
	},
	{
		"buffer":1,
		"byteOffset":60,
		"byteLength":960,
		"target":34962,
		"byteStride":32
	},
	{
		"buffer":2,
		"byteOffset":0,
		"byteLength":72,
		"target":34963
	},
	{
		"buffer":2,
		"byteOffset":72,
		"byteLength":1152,
		"target":34962,
		"byteStride":32
	},
	{
		"buffer":3,
		"byteOffset":0,
		"byteLength":72,
		"target":34963
	},
	{
		"buffer":3,
		"byteOffset":72,
		"byteLength":1152,
		"target":34962,
		"byteStride":32
	},
	{
		"buffer":4,
		"byteOffset":0,
		"byteLength":72,
		"target":34963
	},
	{
		"buffer":4,
		"byteOffset":72,
		"byteLength":1152,
		"target":34962,
		"byteStride":32
	},
	{
		"buffer":5,
		"byteOffset":0,
		"byteLength":72,
		"target":34963
	},
	{
		"buffer":5,
		"byteOffset":72,
		"byteLength":1152,
		"target":34962,
		"byteStride":32
	},
	{
		"buffer":6,
		"byteOffset":0,
		"byteLength":72,
		"target":34963
	},
	{
		"buffer":6,
		"byteOffset":72,
		"byteLength":1152,
		"target":34962,
		"byteStride":32
	}],
	"buffers":[{
		"uri":"data:application/octet-stream;base64,",
		"byteLength":1224
	},
	{
		"uri":"data:application/octet-stream;base64,",
		"byteLength":1020
	},
	{
		"uri":"data:application/octet-stream;base64,",
		"byteLength":1224
	},
	{
		"uri":"data:application/octet-stream;base64,",
		"byteLength":1224
	},
	{
		"uri":"data:application/octet-stream;base64,",
		"byteLength":1224
	},
	{
		"uri":"data:application/octet-stream;base64,",
		"byteLength":1224
	},
	{
		"uri":"data:application/octet-stream;base64,",
		"byteLength":1224
	}]
}